<?xml version="1.0" encoding="iso-8859-1"?>
<!-- Generator: Adobe Illustrator 19.0.0, SVG Export Plug-In . SVG Version: 6.00 Build 0)  -->
<svg version="1.1" id="Layer_1" xmlns="http://www.w3.org/2000/svg" xmlns:xlink="http://www.w3.org/1999/xlink" x="0px" y="0px"
	 viewBox="0 0 485 485" style="enable-background:new 0 0 485 485;" xml:space="preserve">
<g>
	<g id="XMLID_39_">
		<g>
			<rect x="42.5" y="422.5" style="fill:#E7ECED;" width="140" height="35"/>
			<rect x="42.5" y="382.5" style="fill:#E7ECED;" width="140" height="40"/>
			<rect x="42.5" y="347.5" style="fill:#E7ECED;" width="140" height="35"/>
			<rect x="362.5" y="372.5" style="fill:#757B7F;" width="75" height="80"/>
			<rect x="252.5" y="267.5" style="fill:#31C0D8;" width="190" height="40"/>
			<rect x="252.5" y="192.5" style="fill:#31C0D8;" width="190" height="40"/>
			<polygon style="fill:#99A0A4;" points="167.5,312.5 217.5,312.5 217.5,457.5 182.5,457.5 182.5,422.5 182.5,382.5 182.5,347.5 
				42.5,347.5 42.5,382.5 42.5,422.5 42.5,457.5 7.5,457.5 7.5,312.5 37.5,312.5 			"/>
			<rect x="37.5" y="212.5" style="fill:#AFB6BB;" width="130" height="100"/>
			<path style="fill:#AFB6BB;" d="M217.5,457.5v-145v-155h40h220v300H217.5z M362.5,452.5h75v-80h-75V452.5z M442.5,307.5v-40h-190
				v40H442.5z M442.5,232.5v-40h-190v40H442.5z"/>
			<polygon style="fill:#AFB6BB;" points="257.5,67.5 257.5,117.5 167.5,117.5 167.5,67.5 137.5,67.5 137.5,27.5 287.5,27.5 
				287.5,67.5 			"/>
			<polygon style="fill:#E7ECED;" points="257.5,117.5 257.5,157.5 217.5,157.5 217.5,312.5 167.5,312.5 167.5,212.5 167.5,117.5 
							"/>
		</g>
		<g>
			<path d="M265,150V75h30V20H130v55h30v130H30v100H0v160h485V150H265z M145,60V35h135v25h-30v50h-75V75h62.5V60H145z M175,125h75
				v25h-40v155h-35V125z M45,220h115v85H45V220z M175,375H50v-20h125V375z M50,390h125v25H50V390z M50,450v-20h125v20H50z M190,450
				V340H35v110H15V320h195v130H190z M430,410h-32.5v15H430v20h-60v-65h60V410z M470,450h-25v-85h-90v85H225V165h245V450z"/>
			<rect x="67.5" y="240" width="70" height="15"/>
			<rect x="67.5" y="270" width="70" height="15"/>
			<path d="M450,185H245v55h205V185z M435,225H260v-25h175V225z"/>
			<path d="M450,260H245v55h205V260z M435,300H260v-25h175V300z"/>
			<rect x="247.5" y="335" width="95" height="15"/>
			<rect x="247.5" y="370" width="80" height="15"/>
			<rect x="247.5" y="405" width="30" height="15"/>
		</g>
	</g>
</g>
<g>
</g>
<g>
</g>
<g>
</g>
<g>
</g>
<g>
</g>
<g>
</g>
<g>
</g>
<g>
</g>
<g>
</g>
<g>
</g>
<g>
</g>
<g>
</g>
<g>
</g>
<g>
</g>
<g>
</g>
</svg>
