<?xml version="1.0" encoding="UTF-8" standalone="no"?>
<!-- Generator: Adobe Illustrator 18.0.0, SVG Export Plug-In . SVG Version: 6.00 Build 0)  -->

<svg
   version="1.1"
   id="Capa_1"
   x="0px"
   y="0px"
   viewBox="0 0 370 370"
   style="enable-background:new 0 0 370 370;"
   xml:space="preserve"
   sodipodi:docname="military-prison.svg"
   inkscape:version="1.1 (c68e22c387, 2021-05-23)"
   xmlns:inkscape="http://www.inkscape.org/namespaces/inkscape"
   xmlns:sodipodi="http://sodipodi.sourceforge.net/DTD/sodipodi-0.dtd"
   xmlns="http://www.w3.org/2000/svg"
   xmlns:svg="http://www.w3.org/2000/svg"><defs
   id="defs57" /><sodipodi:namedview
   id="namedview55"
   pagecolor="#ffffff"
   bordercolor="#666666"
   borderopacity="1.0"
   inkscape:pageshadow="2"
   inkscape:pageopacity="0.0"
   inkscape:pagecheckerboard="0"
   showgrid="false"
   inkscape:zoom="1.9243243"
   inkscape:cx="184.74017"
   inkscape:cy="183.44101"
   inkscape:window-width="3840"
   inkscape:window-height="2103"
   inkscape:window-x="0"
   inkscape:window-y="0"
   inkscape:window-maximized="1"
   inkscape:current-layer="Capa_1" />
<g
   id="g22"
   style="fill:#008000">
	<rect
   x="216.556"
   y="93.876"
   width="17.934"
   height="63.107"
   id="rect2"
   style="fill:#008000" />
	<rect
   x="270.367"
   y="93.876"
   width="17.938"
   height="63.107"
   id="rect4"
   style="fill:#008000" />
	<rect
   x="81.694"
   y="93.876"
   width="17.938"
   height="63.107"
   id="rect6"
   style="fill:#008000" />
	<rect
   x="243.135"
   y="93.876"
   width="18.588"
   height="63.107"
   id="rect8"
   style="fill:#008000" />
	<rect
   x="108.276"
   y="93.876"
   width="18.587"
   height="63.107"
   id="rect10"
   style="fill:#008000" />
	<rect
   x="135.508"
   y="93.876"
   width="17.936"
   height="63.107"
   id="rect12"
   style="fill:#008000" />
	<path
   d="M142.662,47.099c0.655-0.523,0.979-1.289,0.979-2.285c0-0.996-0.268-1.748-0.816-2.223c-0.55-0.477-1.413-0.723-2.58-0.723   h-1.951v6.012h1.41C141.02,47.88,142.004,47.61,142.662,47.099z"
   id="path14"
   style="fill:#008000" />
	<path
   d="M160.453,42.479c-0.664-0.41-1.68-0.611-3.07-0.611h-1.295v5.465h1.383c1.357,0,2.354-0.229,3-0.674   c0.648-0.451,0.969-1.158,0.969-2.139C161.439,43.563,161.113,42.89,160.453,42.479z"
   id="path16"
   style="fill:#008000" />
	<path
   d="M204.253,41.61c-1.702,0-2.99,0.57-3.856,1.713c-0.873,1.16-1.305,2.863-1.305,5.119c0,2.256,0.428,3.959,1.288,5.109   c0.858,1.133,2.138,1.721,3.847,1.721c3.422,0,5.137-2.291,5.137-6.83C209.363,43.888,207.658,41.61,204.253,41.61z"
   id="path18"
   style="fill:#008000" />
	<path
   d="M363.084,260.86v12.574h-4.322h-24.646V59.075h17.505v-38.02H18.379v38.02h17.505v214.359H11.237H6.915V260.86H0v88.084   h6.915v-19.32h4.322h36.31h4.322v19.32h6.915v-19.32h4.322h36.31h4.322v19.32h6.915v-19.32h4.322h36.31h4.322v19.32h6.915V260.86   h-6.915v12.574h-5.77V253.96c0-19.274,15.627-34.902,34.904-34.902h0.516c19.276,0,34.904,15.629,34.904,34.902v19.475h-5.771   V260.86h-6.915v88.084h6.915v-19.32h4.322h36.309h4.322v19.32h6.916v-19.32h4.322h36.309h4.322v19.32h6.916v-19.32h4.322h36.309   h4.322v19.32H370V260.86H363.084z M218.049,38.349h5.414l8.785,15.152h0.096c-0.139-2.619-0.203-4.484-0.203-5.576v-9.576H236   v20.233h-5.452l-8.803-15.295h-0.12c0.171,2.701,0.258,4.619,0.258,5.781v9.514h-3.834V38.349z M134,38.349h6.46   c2.458,0,4.323,0.531,5.602,1.584c1.271,1.065,1.912,2.635,1.912,4.732c0,2.172-0.68,3.834-2.043,4.998   c-1.355,1.148-3.291,1.725-5.802,1.725h-1.837v7.193H134V38.349z M51.869,325.304h-4.322h-36.31H6.915v-47.547h4.322h24.646v42.579   h11.663v-42.579h4.322V325.304z M51.869,260.86v12.574h-4.322V260.86v-4.322h4.322h6.915h4.322v4.322v12.574h-4.322V260.86H51.869z    M103.738,325.304h-4.322h-36.31h-4.322v-47.547h4.322v42.579h36.31v-42.579h4.322V325.304z M103.738,260.86v12.574h-4.322V260.86   v-4.322h4.322h6.915h4.322v4.322v12.574h-4.322V260.86H103.738z M155.607,277.757v47.547h-5.77h-34.862h-4.322v-47.547h4.322   v42.579h34.862v-42.579H155.607z M162.088,165.628H73.05V85.231h89.038V165.628z M163.199,58.581l-4.83-7.76h-2.281v7.76h-4.289   V38.349h5.887c2.751,0,4.787,0.5,6.109,1.506c1.314,0.998,1.977,2.525,1.977,4.561c0,1.195-0.325,2.248-0.98,3.182   c-0.656,0.916-1.58,1.646-2.781,2.176c3.043,4.547,5.029,7.492,5.947,8.809H163.199z M174.795,58.581h-4.292V38.349h4.292V58.581z    M189.855,57.28c-1.311,1.059-3.139,1.58-5.483,1.58c-2.159,0-4.075-0.4-5.728-1.209v-3.986c1.36,0.611,2.517,1.031,3.463,1.285   c0.945,0.244,1.812,0.367,2.596,0.367c0.939,0,1.664-0.176,2.162-0.543c0.502-0.355,0.754-0.896,0.754-1.594   c0-0.398-0.105-0.756-0.33-1.066c-0.223-0.309-0.545-0.605-0.973-0.895c-0.434-0.285-1.303-0.732-2.626-1.363   c-1.235-0.582-2.159-1.148-2.782-1.674c-0.615-0.539-1.113-1.168-1.477-1.875c-0.373-0.699-0.555-1.537-0.555-2.49   c0-1.793,0.607-3.188,1.814-4.215c1.217-1.031,2.893-1.541,5.033-1.541c1.051,0,2.055,0.125,3.012,0.377   c0.955,0.246,1.955,0.598,2.996,1.053l-1.383,3.33c-1.082-0.439-1.977-0.752-2.682-0.92c-0.703-0.176-1.4-0.275-2.082-0.275   c-0.811,0-1.432,0.199-1.864,0.576c-0.44,0.377-0.651,0.875-0.651,1.484c0,0.373,0.086,0.707,0.262,0.984   c0.176,0.279,0.451,0.551,0.841,0.818c0.38,0.26,1.288,0.729,2.716,1.416c1.889,0.896,3.188,1.805,3.889,2.717   c0.7,0.912,1.053,2.031,1.053,3.35C191.83,54.788,191.171,56.237,189.855,57.28z M197.084,56.169   c-1.655-1.799-2.491-4.383-2.491-7.76c0-3.365,0.838-5.93,2.5-7.703c1.667-1.777,4.056-2.666,7.16-2.666   c3.112,0,5.487,0.896,7.134,2.689c1.648,1.785,2.473,4.359,2.473,7.713c0,3.344-0.834,5.928-2.49,7.726   c-1.661,1.793-4.039,2.692-7.143,2.692C201.127,58.86,198.748,57.962,197.084,56.169z M207.911,165.628V85.231h89.038v80.396   H207.911z M259.346,325.304h-4.322h-34.861h-5.771v-47.547h5.771v42.579h34.861v-42.579h4.322V325.304z M259.346,260.86v12.574   h-4.322V260.86v-4.322h4.322h6.916h4.322v4.322v12.574h-4.322V260.86H259.346z M311.215,325.304h-4.322h-36.309h-4.322v-47.547   h4.322v42.579h36.309v-42.579h4.322V325.304z M311.215,260.86v12.574h-4.322V260.86v-4.322h4.322h6.916h4.322v4.322v12.574h-4.322   V260.86H311.215z M363.084,325.304h-4.322h-36.309h-4.322v-47.547h4.322v42.579h11.662v-42.579h24.646h4.322V325.304z"
   id="path20"
   style="fill:#008000" />
</g>
<g
   id="g24">
</g>
<g
   id="g26">
</g>
<g
   id="g28">
</g>
<g
   id="g30">
</g>
<g
   id="g32">
</g>
<g
   id="g34">
</g>
<g
   id="g36">
</g>
<g
   id="g38">
</g>
<g
   id="g40">
</g>
<g
   id="g42">
</g>
<g
   id="g44">
</g>
<g
   id="g46">
</g>
<g
   id="g48">
</g>
<g
   id="g50">
</g>
<g
   id="g52">
</g>
</svg>
